<svg width="800" height="600" viewBox="0 0 800 600" fill="none" xmlns="http://www.w3.org/2000/svg">
  <rect width="800" height="600" fill="#F0FDF4"/>
  <circle cx="126" cy="124" r="90" fill="#BBF7D0" fill-opacity="0.5"/>
  <circle cx="676" cy="130" r="80" fill="#FDE68A" fill-opacity="0.28"/>
  <ellipse cx="400" cy="332" rx="240" ry="150" fill="#CBD5E1"/>
  <path d="M210 298C210 233 295 182 400 182C505 182 590 233 590 298V330C590 415 505 470 400 470C295 470 210 415 210 330V298Z" fill="#F8FAFC"/>
  <ellipse cx="400" cy="300" rx="170" ry="78" fill="#DCFCE7"/>
  <circle cx="312" cy="290" r="26" fill="#65A30D"/>
  <circle cx="400" cy="262" r="28" fill="#16A34A"/>
  <circle cx="478" cy="296" r="24" fill="#4D7C0F"/>
  <circle cx="350" cy="340" r="22" fill="#F97316"/>
  <circle cx="442" cy="344" r="20" fill="#EF4444"/>
  <circle cx="272" cy="338" r="20" fill="#FACC15"/>
  <path d="M306 264C316 245 332 235 346 232" stroke="#84CC16" stroke-width="6" stroke-linecap="round"/>
  <path d="M474 270C486 248 505 235 520 234" stroke="#84CC16" stroke-width="6" stroke-linecap="round"/>
  <text x="400" y="528" text-anchor="middle" fill="#166534" font-family="Arial, sans-serif" font-size="44" font-weight="700">Sprouts salad</text>
</svg>
